<mxfile host="www.draw.io" modified="2020-03-04T23:23:49.743Z" agent="Mozilla/5.0 (Windows NT 6.1; Win64; x64) AppleWebKit/537.36 (KHTML, like Gecko) Chrome/80.0.3987.122 Safari/537.36" etag="QJ1YvoE8zkmSjTqmLgEP" version="12.7.9" type="github">
  <diagram id="C5RBs43oDa-KdzZeNtuy" name="Page-1">
    <mxGraphModel dx="1102" dy="578" grid="1" gridSize="10" guides="1" tooltips="1" connect="1" arrows="1" fold="1" page="1" pageScale="1" pageWidth="827" pageHeight="1169" math="0" shadow="0">
      <root>
        <mxCell id="WIyWlLk6GJQsqaUBKTNV-0" />
        <mxCell id="WIyWlLk6GJQsqaUBKTNV-1" parent="WIyWlLk6GJQsqaUBKTNV-0" />
        <mxCell id="jEcz7vGn6tzjh62L34h9-18" value="" style="edgeStyle=orthogonalEdgeStyle;rounded=0;orthogonalLoop=1;jettySize=auto;html=1;" parent="WIyWlLk6GJQsqaUBKTNV-1" source="WIyWlLk6GJQsqaUBKTNV-3" target="jEcz7vGn6tzjh62L34h9-17" edge="1">
          <mxGeometry relative="1" as="geometry" />
        </mxCell>
        <mxCell id="jEcz7vGn6tzjh62L34h9-22" value="" style="edgeStyle=orthogonalEdgeStyle;rounded=0;orthogonalLoop=1;jettySize=auto;html=1;" parent="WIyWlLk6GJQsqaUBKTNV-1" source="WIyWlLk6GJQsqaUBKTNV-3" target="jEcz7vGn6tzjh62L34h9-11" edge="1">
          <mxGeometry relative="1" as="geometry" />
        </mxCell>
        <mxCell id="WIyWlLk6GJQsqaUBKTNV-3" value="&lt;span style=&quot;white-space: normal&quot;&gt;生成日对帐任务&lt;/span&gt;&lt;br style=&quot;white-space: normal&quot;&gt;&lt;span style=&quot;white-space: normal&quot;&gt;入参：时间日期&lt;/span&gt;" style="rounded=1;whiteSpace=wrap;html=1;fontSize=12;glass=0;strokeWidth=1;shadow=0;" parent="WIyWlLk6GJQsqaUBKTNV-1" vertex="1">
          <mxGeometry x="160" y="70" width="120" height="40" as="geometry" />
        </mxCell>
        <mxCell id="jEcz7vGn6tzjh62L34h9-34" value="" style="edgeStyle=orthogonalEdgeStyle;rounded=0;orthogonalLoop=1;jettySize=auto;html=1;" parent="WIyWlLk6GJQsqaUBKTNV-1" source="jEcz7vGn6tzjh62L34h9-17" target="jEcz7vGn6tzjh62L34h9-33" edge="1">
          <mxGeometry relative="1" as="geometry" />
        </mxCell>
        <mxCell id="jEcz7vGn6tzjh62L34h9-17" value="生成监听通联通结算文件推送任务" style="rounded=1;whiteSpace=wrap;html=1;fontSize=12;glass=0;strokeWidth=1;shadow=0;" parent="WIyWlLk6GJQsqaUBKTNV-1" vertex="1">
          <mxGeometry x="360" y="70" width="190" height="40" as="geometry" />
        </mxCell>
        <mxCell id="jEcz7vGn6tzjh62L34h9-9" value="server" style="shape=umlActor;verticalLabelPosition=bottom;labelBackgroundColor=#ffffff;verticalAlign=top;html=1;outlineConnect=0;" parent="WIyWlLk6GJQsqaUBKTNV-1" vertex="1">
          <mxGeometry x="50" y="60" width="30" height="60" as="geometry" />
        </mxCell>
        <mxCell id="jEcz7vGn6tzjh62L34h9-10" value="" style="endArrow=classic;html=1;entryX=0;entryY=0.5;entryDx=0;entryDy=0;exitX=0.5;exitY=0.5;exitDx=0;exitDy=0;exitPerimeter=0;" parent="WIyWlLk6GJQsqaUBKTNV-1" source="jEcz7vGn6tzjh62L34h9-9" target="WIyWlLk6GJQsqaUBKTNV-3" edge="1">
          <mxGeometry width="50" height="50" relative="1" as="geometry">
            <mxPoint x="100" y="130" as="sourcePoint" />
            <mxPoint x="150" y="80" as="targetPoint" />
          </mxGeometry>
        </mxCell>
        <mxCell id="jEcz7vGn6tzjh62L34h9-20" value="" style="edgeStyle=orthogonalEdgeStyle;rounded=0;orthogonalLoop=1;jettySize=auto;html=1;" parent="WIyWlLk6GJQsqaUBKTNV-1" source="jEcz7vGn6tzjh62L34h9-11" target="jEcz7vGn6tzjh62L34h9-19" edge="1">
          <mxGeometry relative="1" as="geometry" />
        </mxCell>
        <mxCell id="jEcz7vGn6tzjh62L34h9-11" value="生成监听银联交易文件推送任务" style="rounded=1;whiteSpace=wrap;html=1;" parent="WIyWlLk6GJQsqaUBKTNV-1" vertex="1">
          <mxGeometry x="150" y="150" width="140" height="50" as="geometry" />
        </mxCell>
        <mxCell id="jEcz7vGn6tzjh62L34h9-29" value="" style="edgeStyle=orthogonalEdgeStyle;rounded=0;orthogonalLoop=1;jettySize=auto;html=1;" parent="WIyWlLk6GJQsqaUBKTNV-1" source="jEcz7vGn6tzjh62L34h9-12" target="jEcz7vGn6tzjh62L34h9-28" edge="1">
          <mxGeometry relative="1" as="geometry" />
        </mxCell>
        <mxCell id="jEcz7vGn6tzjh62L34h9-12" value="生成机构交易文件" style="rounded=1;whiteSpace=wrap;html=1;" parent="WIyWlLk6GJQsqaUBKTNV-1" vertex="1">
          <mxGeometry x="250" y="380" width="120" height="50" as="geometry" />
        </mxCell>
        <mxCell id="jEcz7vGn6tzjh62L34h9-21" value="已推送" style="edgeStyle=orthogonalEdgeStyle;rounded=0;orthogonalLoop=1;jettySize=auto;html=1;" parent="WIyWlLk6GJQsqaUBKTNV-1" source="jEcz7vGn6tzjh62L34h9-19" target="jEcz7vGn6tzjh62L34h9-12" edge="1">
          <mxGeometry relative="1" as="geometry" />
        </mxCell>
        <mxCell id="jEcz7vGn6tzjh62L34h9-24" style="edgeStyle=orthogonalEdgeStyle;rounded=0;orthogonalLoop=1;jettySize=auto;html=1;entryX=0.5;entryY=0;entryDx=0;entryDy=0;" parent="WIyWlLk6GJQsqaUBKTNV-1" source="jEcz7vGn6tzjh62L34h9-19" target="jEcz7vGn6tzjh62L34h9-23" edge="1">
          <mxGeometry relative="1" as="geometry" />
        </mxCell>
        <mxCell id="jEcz7vGn6tzjh62L34h9-25" value="已推送" style="text;html=1;align=center;verticalAlign=middle;resizable=0;points=[];labelBackgroundColor=#ffffff;" parent="jEcz7vGn6tzjh62L34h9-24" vertex="1" connectable="0">
          <mxGeometry x="-0.1846" y="-2" relative="1" as="geometry">
            <mxPoint as="offset" />
          </mxGeometry>
        </mxCell>
        <mxCell id="jEcz7vGn6tzjh62L34h9-26" style="edgeStyle=orthogonalEdgeStyle;rounded=0;orthogonalLoop=1;jettySize=auto;html=1;entryX=0;entryY=0.75;entryDx=0;entryDy=0;" parent="WIyWlLk6GJQsqaUBKTNV-1" source="jEcz7vGn6tzjh62L34h9-19" target="jEcz7vGn6tzjh62L34h9-11" edge="1">
          <mxGeometry relative="1" as="geometry">
            <mxPoint x="140" y="190" as="targetPoint" />
          </mxGeometry>
        </mxCell>
        <mxCell id="jEcz7vGn6tzjh62L34h9-27" value="未推送" style="text;html=1;align=center;verticalAlign=middle;resizable=0;points=[];labelBackgroundColor=#ffffff;" parent="jEcz7vGn6tzjh62L34h9-26" vertex="1" connectable="0">
          <mxGeometry x="0.103" relative="1" as="geometry">
            <mxPoint as="offset" />
          </mxGeometry>
        </mxCell>
        <mxCell id="jEcz7vGn6tzjh62L34h9-19" value="是否推送" style="rhombus;whiteSpace=wrap;html=1;" parent="WIyWlLk6GJQsqaUBKTNV-1" vertex="1">
          <mxGeometry x="180" y="250" width="80" height="70" as="geometry" />
        </mxCell>
        <mxCell id="jEcz7vGn6tzjh62L34h9-23" value="生成运营日结算报表" style="rounded=1;whiteSpace=wrap;html=1;" parent="WIyWlLk6GJQsqaUBKTNV-1" vertex="1">
          <mxGeometry x="90" y="380" width="120" height="50" as="geometry" />
        </mxCell>
        <mxCell id="jEcz7vGn6tzjh62L34h9-31" value="" style="edgeStyle=orthogonalEdgeStyle;rounded=0;orthogonalLoop=1;jettySize=auto;html=1;" parent="WIyWlLk6GJQsqaUBKTNV-1" source="jEcz7vGn6tzjh62L34h9-28" target="jEcz7vGn6tzjh62L34h9-30" edge="1">
          <mxGeometry relative="1" as="geometry" />
        </mxCell>
        <mxCell id="jEcz7vGn6tzjh62L34h9-28" value="生成监听多机构回传对帐文件任务" style="rounded=1;whiteSpace=wrap;html=1;" parent="WIyWlLk6GJQsqaUBKTNV-1" vertex="1">
          <mxGeometry x="250" y="470" width="120" height="50" as="geometry" />
        </mxCell>
        <mxCell id="jEcz7vGn6tzjh62L34h9-38" style="edgeStyle=orthogonalEdgeStyle;rounded=0;orthogonalLoop=1;jettySize=auto;html=1;entryX=0;entryY=0.5;entryDx=0;entryDy=0;" parent="WIyWlLk6GJQsqaUBKTNV-1" source="jEcz7vGn6tzjh62L34h9-30" target="jEcz7vGn6tzjh62L34h9-28" edge="1">
          <mxGeometry relative="1" as="geometry" />
        </mxCell>
        <mxCell id="jEcz7vGn6tzjh62L34h9-39" value="未回传" style="text;html=1;align=center;verticalAlign=middle;resizable=0;points=[];labelBackgroundColor=#ffffff;" parent="jEcz7vGn6tzjh62L34h9-38" vertex="1" connectable="0">
          <mxGeometry x="0.2485" y="-3" relative="1" as="geometry">
            <mxPoint as="offset" />
          </mxGeometry>
        </mxCell>
        <mxCell id="jEcz7vGn6tzjh62L34h9-41" value="" style="edgeStyle=orthogonalEdgeStyle;rounded=0;orthogonalLoop=1;jettySize=auto;html=1;" parent="WIyWlLk6GJQsqaUBKTNV-1" source="jEcz7vGn6tzjh62L34h9-30" target="jEcz7vGn6tzjh62L34h9-40" edge="1">
          <mxGeometry relative="1" as="geometry" />
        </mxCell>
        <mxCell id="jEcz7vGn6tzjh62L34h9-30" value="是否回传" style="rhombus;whiteSpace=wrap;html=1;" parent="WIyWlLk6GJQsqaUBKTNV-1" vertex="1">
          <mxGeometry x="270" y="560" width="80" height="50" as="geometry" />
        </mxCell>
        <mxCell id="jEcz7vGn6tzjh62L34h9-32" value="生成机构结算报表" style="rounded=1;whiteSpace=wrap;html=1;" parent="WIyWlLk6GJQsqaUBKTNV-1" vertex="1">
          <mxGeometry x="395" y="240" width="120" height="50" as="geometry" />
        </mxCell>
        <mxCell id="jEcz7vGn6tzjh62L34h9-35" value="j已推送" style="edgeStyle=orthogonalEdgeStyle;rounded=0;orthogonalLoop=1;jettySize=auto;html=1;" parent="WIyWlLk6GJQsqaUBKTNV-1" source="jEcz7vGn6tzjh62L34h9-33" target="jEcz7vGn6tzjh62L34h9-32" edge="1">
          <mxGeometry relative="1" as="geometry" />
        </mxCell>
        <mxCell id="jEcz7vGn6tzjh62L34h9-36" style="edgeStyle=orthogonalEdgeStyle;rounded=0;orthogonalLoop=1;jettySize=auto;html=1;entryX=1;entryY=0.5;entryDx=0;entryDy=0;" parent="WIyWlLk6GJQsqaUBKTNV-1" source="jEcz7vGn6tzjh62L34h9-33" target="jEcz7vGn6tzjh62L34h9-17" edge="1">
          <mxGeometry relative="1" as="geometry" />
        </mxCell>
        <mxCell id="jEcz7vGn6tzjh62L34h9-37" value="未推送" style="text;html=1;align=center;verticalAlign=middle;resizable=0;points=[];labelBackgroundColor=#ffffff;" parent="jEcz7vGn6tzjh62L34h9-36" vertex="1" connectable="0">
          <mxGeometry x="0.0974" relative="1" as="geometry">
            <mxPoint as="offset" />
          </mxGeometry>
        </mxCell>
        <mxCell id="jEcz7vGn6tzjh62L34h9-33" value="是否推送" style="rhombus;whiteSpace=wrap;html=1;" parent="WIyWlLk6GJQsqaUBKTNV-1" vertex="1">
          <mxGeometry x="415" y="150" width="80" height="50" as="geometry" />
        </mxCell>
        <mxCell id="jEcz7vGn6tzjh62L34h9-43" value="" style="edgeStyle=orthogonalEdgeStyle;rounded=0;orthogonalLoop=1;jettySize=auto;html=1;" parent="WIyWlLk6GJQsqaUBKTNV-1" source="jEcz7vGn6tzjh62L34h9-40" target="jEcz7vGn6tzjh62L34h9-42" edge="1">
          <mxGeometry relative="1" as="geometry" />
        </mxCell>
        <mxCell id="jEcz7vGn6tzjh62L34h9-40" value="生成机构交易日汇总报表" style="rounded=1;whiteSpace=wrap;html=1;" parent="WIyWlLk6GJQsqaUBKTNV-1" vertex="1">
          <mxGeometry x="240" y="640" width="140" height="50" as="geometry" />
        </mxCell>
        <mxCell id="jEcz7vGn6tzjh62L34h9-47" value="" style="edgeStyle=orthogonalEdgeStyle;rounded=0;orthogonalLoop=1;jettySize=auto;html=1;" parent="WIyWlLk6GJQsqaUBKTNV-1" source="jEcz7vGn6tzjh62L34h9-42" target="jEcz7vGn6tzjh62L34h9-46" edge="1">
          <mxGeometry relative="1" as="geometry" />
        </mxCell>
        <mxCell id="jEcz7vGn6tzjh62L34h9-50" style="edgeStyle=orthogonalEdgeStyle;rounded=0;orthogonalLoop=1;jettySize=auto;html=1;entryX=0.547;entryY=-0.05;entryDx=0;entryDy=0;entryPerimeter=0;" parent="WIyWlLk6GJQsqaUBKTNV-1" source="jEcz7vGn6tzjh62L34h9-42" target="jEcz7vGn6tzjh62L34h9-49" edge="1">
          <mxGeometry relative="1" as="geometry" />
        </mxCell>
        <mxCell id="jEcz7vGn6tzjh62L34h9-42" value="生成交易明细与机构对帐文件比对任务" style="rounded=1;whiteSpace=wrap;html=1;" parent="WIyWlLk6GJQsqaUBKTNV-1" vertex="1">
          <mxGeometry x="240" y="750" width="140" height="50" as="geometry" />
        </mxCell>
        <mxCell id="jEcz7vGn6tzjh62L34h9-55" value="" style="edgeStyle=orthogonalEdgeStyle;rounded=0;orthogonalLoop=1;jettySize=auto;html=1;" parent="WIyWlLk6GJQsqaUBKTNV-1" source="jEcz7vGn6tzjh62L34h9-46" target="jEcz7vGn6tzjh62L34h9-52" edge="1">
          <mxGeometry relative="1" as="geometry" />
        </mxCell>
        <mxCell id="jEcz7vGn6tzjh62L34h9-46" value="以银联为主，与机构对帐比对" style="rounded=1;whiteSpace=wrap;html=1;" parent="WIyWlLk6GJQsqaUBKTNV-1" vertex="1">
          <mxGeometry x="120" y="850" width="170" height="40" as="geometry" />
        </mxCell>
        <mxCell id="jEcz7vGn6tzjh62L34h9-49" value="以机构为主，与交易明细比队" style="rounded=1;whiteSpace=wrap;html=1;" parent="WIyWlLk6GJQsqaUBKTNV-1" vertex="1">
          <mxGeometry x="325" y="850" width="170" height="40" as="geometry" />
        </mxCell>
        <mxCell id="jEcz7vGn6tzjh62L34h9-56" style="edgeStyle=orthogonalEdgeStyle;rounded=0;orthogonalLoop=1;jettySize=auto;html=1;entryX=0.5;entryY=0;entryDx=0;entryDy=0;" parent="WIyWlLk6GJQsqaUBKTNV-1" target="jEcz7vGn6tzjh62L34h9-53" edge="1">
          <mxGeometry relative="1" as="geometry">
            <mxPoint x="205" y="980" as="sourcePoint" />
            <Array as="points">
              <mxPoint x="205" y="1000" />
              <mxPoint x="80" y="1000" />
            </Array>
          </mxGeometry>
        </mxCell>
        <mxCell id="jEcz7vGn6tzjh62L34h9-57" style="edgeStyle=orthogonalEdgeStyle;rounded=0;orthogonalLoop=1;jettySize=auto;html=1;entryX=0.5;entryY=0;entryDx=0;entryDy=0;" parent="WIyWlLk6GJQsqaUBKTNV-1" source="jEcz7vGn6tzjh62L34h9-52" target="jEcz7vGn6tzjh62L34h9-54" edge="1">
          <mxGeometry relative="1" as="geometry" />
        </mxCell>
        <mxCell id="jEcz7vGn6tzjh62L34h9-60" style="edgeStyle=orthogonalEdgeStyle;rounded=0;orthogonalLoop=1;jettySize=auto;html=1;entryX=0.5;entryY=0;entryDx=0;entryDy=0;" parent="WIyWlLk6GJQsqaUBKTNV-1" source="jEcz7vGn6tzjh62L34h9-52" target="jEcz7vGn6tzjh62L34h9-58" edge="1">
          <mxGeometry relative="1" as="geometry">
            <mxPoint x="350" y="1020" as="targetPoint" />
            <Array as="points">
              <mxPoint x="205" y="1000" />
              <mxPoint x="340" y="1000" />
              <mxPoint x="340" y="1030" />
            </Array>
          </mxGeometry>
        </mxCell>
        <mxCell id="jEcz7vGn6tzjh62L34h9-52" value="数据比对规则&lt;br&gt;筛选出交易状态" style="rhombus;whiteSpace=wrap;html=1;" parent="WIyWlLk6GJQsqaUBKTNV-1" vertex="1">
          <mxGeometry x="165" y="920" width="80" height="60" as="geometry" />
        </mxCell>
        <mxCell id="jEcz7vGn6tzjh62L34h9-53" value="交易平帐" style="rounded=1;whiteSpace=wrap;html=1;" parent="WIyWlLk6GJQsqaUBKTNV-1" vertex="1">
          <mxGeometry x="20" y="1030" width="120" height="30" as="geometry" />
        </mxCell>
        <mxCell id="jEcz7vGn6tzjh62L34h9-54" value="交易挂帐" style="rounded=1;whiteSpace=wrap;html=1;" parent="WIyWlLk6GJQsqaUBKTNV-1" vertex="1">
          <mxGeometry x="145" y="1030" width="120" height="30" as="geometry" />
        </mxCell>
        <mxCell id="jEcz7vGn6tzjh62L34h9-58" value="交易未对帐" style="rounded=1;whiteSpace=wrap;html=1;" parent="WIyWlLk6GJQsqaUBKTNV-1" vertex="1">
          <mxGeometry x="280" y="1030" width="120" height="30" as="geometry" />
        </mxCell>
      </root>
    </mxGraphModel>
  </diagram>
</mxfile>
